{
	"asset":{
		"generator":"Khronos glTF Blender I/O v3.6.27",
		"version":"2.0"
	},
	"scene":0,
	"scenes":[
		{
			"name":"Scene",
			"nodes":[
				0
			]
		}
	],
	"nodes":[
		{
			"mesh":0,
			"name":"Plane",
			"rotation":[
				-0.49616435170173645,
				0.49616432189941406,
				-0.503806471824646,
				0.5038065314292908
			],
			"translation":[
				0,
				-0.30627256631851196,
				-0.21329693496227264
			]
		}
	],
	"materials":[
		{
			"doubleSided":true,
			"name":"Brown",
			"pbrMetallicRoughness":{
				"baseColorFactor":[
					0.14731356501579285,
					0.06347312778234482,
					0.007880817167460918,
					1
				],
				"metallicFactor":0,
				"roughnessFactor":0.5
			}
		},
		{
			"doubleSided":true,
			"name":"White",
			"pbrMetallicRoughness":{
				"baseColorFactor":[
					0.800000011920929,
					0.800000011920929,
					0.800000011920929,
					1
				],
				"metallicFactor":0,
				"roughnessFactor":0.5
			}
		},
		{
			"doubleSided":true,
			"name":"Black",
			"pbrMetallicRoughness":{
				"baseColorFactor":[
					0,
					0,
					0,
					1
				],
				"metallicFactor":0,
				"roughnessFactor":0.5
			}
		},
		{
			"doubleSided":true,
			"name":"DarkBrown",
			"pbrMetallicRoughness":{
				"baseColorFactor":[
					0.03740963712334633,
					0.011029702611267567,
					0.0030572714749723673,
					1
				],
				"metallicFactor":0,
				"roughnessFactor":0.5
			}
		}
	],
	"meshes":[
		{
			"name":"Plane",
			"primitives":[
				{
					"attributes":{
						"POSITION":0,
						"NORMAL":1,
						"TEXCOORD_0":2
					},
					"indices":3,
					"material":0
				},
				{
					"attributes":{
						"POSITION":4,
						"NORMAL":5,
						"TEXCOORD_0":6
					},
					"indices":7,
					"material":1
				},
				{
					"attributes":{
						"POSITION":8,
						"NORMAL":9,
						"TEXCOORD_0":10
					},
					"indices":11,
					"material":2
				},
				{
					"attributes":{
						"POSITION":12,
						"NORMAL":13,
						"TEXCOORD_0":14
					},
					"indices":15,
					"material":3
				}
			]
		}
	],
	"accessors":[
		{
			"bufferView":0,
			"componentType":5126,
			"count":1593,
			"max":[
				0.5603686571121216,
				0.33171725273132324,
				1.8703550100326538
			],
			"min":[
				-1.7165037393569946,
				-0.33171725273132324,
				-1.3909571170806885
			],
			"type":"VEC3"
		},
		{
			"bufferView":1,
			"componentType":5126,
			"count":1593,
			"type":"VEC3"
		},
		{
			"bufferView":2,
			"componentType":5126,
			"count":1593,
			"type":"VEC2"
		},
		{
			"bufferView":3,
			"componentType":5123,
			"count":2736,
			"type":"SCALAR"
		},
		{
			"bufferView":4,
			"componentType":5126,
			"count":384,
			"max":[
				1.0589442253112793,
				0.24995192885398865,
				0.9637439846992493
			],
			"min":[
				0.4996539354324341,
				-0.24995192885398865,
				-1.0638618469238281
			],
			"type":"VEC3"
		},
		{
			"bufferView":5,
			"componentType":5126,
			"count":384,
			"type":"VEC3"
		},
		{
			"bufferView":6,
			"componentType":5126,
			"count":384,
			"type":"VEC2"
		},
		{
			"bufferView":7,
			"componentType":5123,
			"count":576,
			"type":"SCALAR"
		},
		{
			"bufferView":8,
			"componentType":5126,
			"count":184,
			"max":[
				1.0952510833740234,
				0.24995167553424835,
				1.8544845581054688
			],
			"min":[
				-1.457427978515625,
				-0.24995167553424835,
				-0.9858419895172119
			],
			"type":"VEC3"
		},
		{
			"bufferView":9,
			"componentType":5126,
			"count":184,
			"type":"VEC3"
		},
		{
			"bufferView":10,
			"componentType":5126,
			"count":184,
			"type":"VEC2"
		},
		{
			"bufferView":11,
			"componentType":5123,
			"count":288,
			"type":"SCALAR"
		},
		{
			"bufferView":12,
			"componentType":5126,
			"count":215,
			"max":[
				0.0232943594455719,
				0.10000023245811462,
				1.289351463317871
			],
			"min":[
				-1.6333751678466797,
				-0.10000023245811462,
				-1.3909571170806885
			],
			"type":"VEC3"
		},
		{
			"bufferView":13,
			"componentType":5126,
			"count":215,
			"type":"VEC3"
		},
		{
			"bufferView":14,
			"componentType":5126,
			"count":215,
			"type":"VEC2"
		},
		{
			"bufferView":15,
			"componentType":5123,
			"count":402,
			"type":"SCALAR"
		}
	],
	"bufferViews":[
		{
			"buffer":0,
			"byteLength":19116,
			"byteOffset":0,
			"target":34962
		},
		{
			"buffer":0,
			"byteLength":19116,
			"byteOffset":19116,
			"target":34962
		},
		{
			"buffer":0,
			"byteLength":12744,
			"byteOffset":38232,
			"target":34962
		},
		{
			"buffer":0,
			"byteLength":5472,
			"byteOffset":50976,
			"target":34963
		},
		{
			"buffer":0,
			"byteLength":4608,
			"byteOffset":56448,
			"target":34962
		},
		{
			"buffer":0,
			"byteLength":4608,
			"byteOffset":61056,
			"target":34962
		},
		{
			"buffer":0,
			"byteLength":3072,
			"byteOffset":65664,
			"target":34962
		},
		{
			"buffer":0,
			"byteLength":1152,
			"byteOffset":68736,
			"target":34963
		},
		{
			"buffer":0,
			"byteLength":2208,
			"byteOffset":69888,
			"target":34962
		},
		{
			"buffer":0,
			"byteLength":2208,
			"byteOffset":72096,
			"target":34962
		},
		{
			"buffer":0,
			"byteLength":1472,
			"byteOffset":74304,
			"target":34962
		},
		{
			"buffer":0,
			"byteLength":576,
			"byteOffset":75776,
			"target":34963
		},
		{
			"buffer":0,
			"byteLength":2580,
			"byteOffset":76352,
			"target":34962
		},
		{
			"buffer":0,
			"byteLength":2580,
			"byteOffset":78932,
			"target":34962
		},
		{
			"buffer":0,
			"byteLength":1720,
			"byteOffset":81512,
			"target":34962
		},
		{
			"buffer":0,
			"byteLength":804,
			"byteOffset":83232,
			"target":34963
		}
	],
	"buffers":[
		{
			"byteLength":84036,
			"uri":"data:application/octet-stream;base64,"
		}
	]
}
